PathFileType	4	(X/Y/Z)	pose_F01_0-96.trc
DataRate	CameraRate	NumFrames	NumMarkers	Units	OrigDataRate	OrigDataStartFrame	OrigNumFrames
30	30	9	21	m	30	80	96
Frame#	Time	CHip			RHip			RKnee			RAnkle			RBigToe			RSmallToe			RHeel			LHip			LKnee			LAnkle			LBigToe			LSmallToe			LHeel			Neck			Nose			RShoulder			RElbow			RWrist			LShoulder			LElbow			LWrist			
		X1	Y1	Z1	X2	Y2	Z2	X3	Y3	Z3	X4	Y4	Z4	X5	Y5	Z5	X6	Y6	Z6	X7	Y7	Z7	X8	Y8	Z8	X9	Y9	Z9	X10	Y10	Z10	X11	Y11	Z11	X12	Y12	Z12	X13	Y13	Z13	X14	Y14	Z14	X15	Y15	Z15	X16	Y16	Z16	X17	Y17	Z17	X18	Y18	Z18	X19	Y19	Z19	X20	Y20	Z20	X21	Y21	Z21	
80	2.6666666666666665	-0.9521453738829394	1.749013259190078	-0.2238202519443273	-0.22867343605675108	1.8442413391070789	-0.8437841587794606																-0.8742267080459162	1.748572013519457	-0.3490984156000153	-0.23834037633674518	1.6952025607505912	-0.5945133195692163													-0.20634644698413193	2.0038374205913083	-0.9347877014645061	-0.18881766703600927	2.0650090772469114	-0.9259251989902735	-0.2278337706312962	2.0010383238165748	-0.8364471110238256	-1.1478354545393303	1.8132215002916887	0.08693262786599024	-0.23822024707907175	1.8425637978871814	-0.769777628488203	-0.1825716952569941	2.0079075236302257	-1.0347684146689424	-0.18596799640112363	1.924789585052096	-1.0598415705089155	-0.7140442232201232	1.7487661688577605	-0.6116168469349819
81	2.7	-0.9319395095458026	1.7462013158309138	-0.24837682025930077	-0.22836257250103206	1.845165659336681	-0.846677829681105																-0.8561113089821725	1.7475641348926008	-0.3705564761366095	-0.23834037633674518	1.6952025607505912	-0.5945133195692163													-0.20624316535069429	2.0026704095427212	-0.9345714287442378	-0.1903802804079494	2.0649347382010355	-0.9210178023896403	-0.22780953903461276	2.0007535538563888	-0.8364615589553145	-1.1449190462874033	1.8143852055177014	0.08527203619957326	-0.23629606801478412	1.838450917206779	-0.785163979630308	-0.1825101528278858	2.0080703117902274	-1.0347192357402537	-0.1865553073950215	1.924357996842604	-1.0627019075013242	-0.7161988973203458	1.7522710112441247	-0.6125269165057934
82	2.7333333333333334	-0.9298421297406512	1.744121969447968	-0.250971726331035	-0.22805170894531301	1.846089979566283	-0.8495715005827497																-0.8463133368543952	1.7453717603787346	-0.38391470406798356	-0.23834037633674518	1.6952025607505912	-0.5945133195692163													-0.20702237666084292	2.004074844037822	-0.9376077365500938	-0.18808673216847913	2.0663166350239464	-0.9234388339466896	-0.22862614303160517	2.0009567237705843	-0.8393450635098567	-1.1488653541209388	1.8185866088237224	0.09008047331473572	-0.2243579832745572	1.8445684577823946	-0.7854075152745131	-0.18250848156741306	2.0081110713723658	-1.034863043544696	-0.18168827905212137	1.9232587564425756	-1.0673467067756524	-0.6993079116240419	1.7514488742233334	-0.627621355069397
83	2.7666666666666666	-0.9323467269795938	1.751352963096878	-0.2476342241945663	-0.227740845389594	1.8470142997958852	-0.8524651714843942																-0.8434747465230786	1.752910374729264	-0.3899483516781617	-0.23834037633674518	1.6952025607505912	-0.5945133195692163													-0.2069173331063419	2.004124130980939	-0.9377102855171243	-0.18791941281156826	2.0663696745201605	-0.9229714472064725	-0.22853590979319385	2.001055268091523	-0.8395373923451137	-1.1494633162976668	1.8181318342999984	0.09099803192155688	-0.22285227677747416	1.844280352129793	-0.7791981928822075	-0.1801656627714673	2.009038685802283	-1.0371879066483636	-0.17706326988157448	1.9288800811349842	-1.074918376809556	-0.682416925927738	1.7506267372025421	-0.6427157936330007
84	2.8	-0.9297765060843983	1.7480001617455712	-0.25429041272994846	-0.2257904466184481	1.8436578932500287	-0.8543367201170287																-0.8374448321966659	1.7504655699565692	-0.39980059133116014	-0.23834037633674518	1.6952025607505912	-0.5945133195692163													-0.20691945738058412	2.0041898237937925	-0.9377726554753799	-0.18803021050968766	2.064960294235056	-0.9231392220719628	-0.229270603899832	1.9999507748301826	-0.8421294376950957	-1.1507701704091762	1.8163815835063133	0.09339527692741571	-0.22134657028039112	1.8439922464771914	-0.7729888704899018	-0.18077575580982455	2.008216063305464	-1.0397046590132129	-0.17206902467537677	1.9310719241254717	-1.0796757391550225	-0.664860675822268	1.7543725479833627	-0.6516284874728848
85	2.8333333333333335	-0.9234783011620541	1.751941820378411	-0.2649711517405771	-0.2237744172821959	1.8471954433677498	-0.8600916712640264																-0.8287282691611358	1.7515667357864142	-0.4123300878118551	-0.23834037633674518	1.6952025607505912	-0.5945133195692163													-0.20535618395881974	2.0045476225031025	-0.9427670625638745	-0.18803317092391963	2.0649456890834	-0.9231870603301764	-0.23013077314320962	2.0010716327096167	-0.8453498437086612	-1.1583522777277875	1.8181296802923976	0.10635862665448517	-0.22150958197333365	1.8485464168769505	-0.7732595142299548	-0.1807740658864851	2.0092773094268868	-1.0400235774270783	-0.17236484573903613	1.9325689638493875	-1.0826006629870386	-0.6648923555152738	1.757663908929714	-0.6479001591712908
86	2.8666666666666667	-0.9282354081594368	1.7513434688475118	-0.256032247451439	-1.0136856191446837	1.7500254989402908	-0.11705321649713488																-0.8308735959012342	1.7531229748159614	-0.409675460099406	-0.23834037633674518	1.6952025607505912	-0.5945133195692163													-0.20529811928717892	2.004578206693699	-0.9429057342498439	-0.18809347218983102	2.0650392730226352	-0.9231838717148863	-0.22789516662039483	1.9998037979885344	-0.8473253343284862	-1.1576293463557796	1.819473762998514	0.1048451320731065	-0.22289553839876428	1.847521153907227	-0.7679108200135225	-0.18058395907130725	2.0108840569873805	-1.0400803945926331	-0.16915668507037954	1.9343507763160759	-1.0822872217609714	-0.6713155491222652	1.7591522970419158	-0.6333952787057617
87	2.9	-0.9159659394611696	1.7475794350902756	-0.272807346015839	-1.0089104452843325	1.745927563178784	-0.12322234619765567																-0.8249816257122875	1.7469388908697887	-0.41639159051893126	-0.23834037633674518	1.6952025607505912	-0.5945133195692163													-0.2051823319788679	2.0058833782599934	-0.9428659980423667	-0.1909783200470598	2.0665190112394582	-0.9236462770829461	-0.2301069878050536	1.9997282756978545	-0.8452228164350404	-1.1600183945076306	1.8201099299388925	0.10672019874490411	-0.2275583192868774	1.8461043906213312	-0.763227510713319	-0.18060102576682516	2.010869406315104	-1.0401084295305607	-0.16965150130164425	1.9349418785023977	-1.0852447747640297	-0.6750558849490612	1.7618276366600698	-0.6197007156699982
88	2.933333333333333	-0.9209541625028015	1.7470111902623966	-0.2635273199276375	-0.22152345168208357	1.8450035840241967	-0.8619981296240118																-0.8292371941992694	1.7470822920445994	-0.408474869490269	-0.23834037633674518	1.6952025607505912	-0.5945133195692163													-0.20532649216225257	2.004439689258402	-0.9428617138624485	-0.19104003031158148	2.0664983038107723	-0.9236335830515378	-0.22789679169724028	1.9999766216484942	-0.8472321560097159	-1.1605188834035096	1.8196530531262192	0.10736725816386097	-0.230542551637637	1.848587538443494	-0.7641459504334025	-0.18074751052262222	2.009348334549354	-1.0401381468893378	-0.17014631753290896	1.9355329806887194	-1.088202327767088	-0.6803928623825687	1.765475485169185	-0.5986776814922992
